<svg xmlns="http://www.w3.org/2000/svg" width="320" height="200" viewBox="0 0 320 200">
  <defs>
    <linearGradient id="sky" x1="0" y1="0" x2="0" y2="1">
      <stop offset="0" stop-color="#13294f"/>
      <stop offset="0.5" stop-color="#3f6ea8"/>
      <stop offset="0.82" stop-color="#9fb9d4"/>
      <stop offset="1" stop-color="#ecc79a"/>
    </linearGradient>
    <linearGradient id="gnd" x1="0" y1="0" x2="0" y2="1">
      <stop offset="0" stop-color="#5d6b3c"/>
      <stop offset="1" stop-color="#26331c"/>
    </linearGradient>
  </defs>
  <rect width="320" height="124" fill="url(#sky)"/>
  <rect y="124" width="320" height="76" fill="url(#gnd)"/>
  <!-- 地平线霾 -->
  <rect y="118" width="320" height="12" fill="#ecc79a" opacity="0.45"/>
  <!-- 远山 -->
  <path d="M0,124 L40,108 L90,118 L150,100 L210,116 L270,104 L320,120 L320,124 Z" fill="#3a4055" opacity="0.7"/>
  <!-- 跑道(梯形透视) -->
  <polygon points="148,200 172,200 178,128 142,128" fill="#3a4049"/>
  <!-- 跑道中线 -->
  <polygon points="159,196 161,196 161.5,130 158.5,130" fill="#f0f2f7" opacity="0.85"/>
  <line x1="159.5" y1="186" x2="160.5" y2="172" stroke="#f0f2f7" stroke-width="0" opacity="0"/>
  <!-- 入口斑马线 -->
  <rect x="144" y="126" width="32" height="3" fill="#f4f6fb" opacity="0.9"/>
  <!-- 进近灯 rabbit -->
  <circle cx="160" cy="122" r="1.6" fill="#fff7d8"/>
  <circle cx="160" cy="116" r="1.3" fill="#fff7d8" opacity="0.8"/>
  <circle cx="160" cy="111" r="1.1" fill="#fff7d8" opacity="0.6"/>
  <!-- PAPI 两白两红 -->
  <circle cx="132" cy="129" r="2" fill="#fff"/>
  <circle cx="137" cy="129" r="2" fill="#fff"/>
  <circle cx="142" cy="129" r="2" fill="#ff4632"/>
  <circle cx="147" cy="129" r="2" fill="#ff4632"/>
  <!-- HUD 飞行路径符 -->
  <g stroke="#2ee68f" stroke-width="2" fill="none" opacity="0.92">
    <circle cx="160" cy="96" r="7"/>
    <line x1="153" y1="96" x2="146" y2="96"/>
    <line x1="167" y1="96" x2="174" y2="96"/>
    <line x1="160" y1="89" x2="160" y2="83"/>
  </g>
  <!-- 风挡 A 柱剪影 -->
  <path d="M0,0 L0,200 L18,200 Q10,100 22,40 Z" fill="#11151c" opacity="0.85"/>
  <path d="M320,0 L320,200 L302,200 Q310,100 298,40 Z" fill="#11151c" opacity="0.85"/>
  <path d="M0,0 H320 V20 Q200,34 160,36 Q120,34 0,20 Z" fill="#070a10" opacity="0.9"/>
  <!-- 标题 -->
  <text x="160" y="16" font-family="ui-monospace,Menlo,monospace" font-size="11" font-weight="700" letter-spacing="3" fill="#2ee68f" text-anchor="middle">FINAL APPROACH</text>
  <text x="160" y="192" font-family="ui-monospace,Menlo,monospace" font-size="9" fill="#9fb9d4" text-anchor="middle" opacity="0.8">RWY 27 · ILS · 3.0°</text>
</svg>
